<?xml version="1.0" encoding="UTF-8" standalone="no"?>
<svg width="51px" height="51px" viewBox="0 0 51 51" version="1.1" xmlns="http://www.w3.org/2000/svg" xmlns:xlink="http://www.w3.org/1999/xlink">
    <!-- Generator: Sketch 3.7.2 (28276) - http://www.bohemiancoding.com/sketch -->
    <title>Group 8</title>
    <desc>Created with Sketch.</desc>
    <defs></defs>
    <g id="Page-1" stroke="none" stroke-width="1" fill="none" fill-rule="evenodd">
        <g id="Desktop-HD" transform="translate(-939.000000, -961.000000)">
            <g id="Group-9" transform="translate(939.000000, 961.000000)">
                <g id="Group-8">
                    <rect id="Rectangle-11" fill="#414141" x="0" y="0" width="51" height="51" rx="8"></rect>
                    <g id="Imported-Layers-Copy-5" transform="translate(15.140625, 12.750000)" fill="#52E5BC">
                        <path d="M2.36851105,6.86560468 L2.36851105,2.56650726 C5.22694288,-0.232113694 9.99460838,0.00497695529 9.99460838,0.00497695529 C11.8896414,0.00497695529 13.4838459,0.236945276 14.7790904,0.700516036 C16.0735874,1.16445268 17.1076155,1.81352492 17.8819221,2.64846452 C18.6551075,3.48340412 19.2081836,4.49616171 19.5396556,5.68600552 C19.8711275,6.87694698 20.0370504,8.18314083 20.0370504,9.60495296 L20.0370504,24.3067685 C19.1525023,24.49227 17.8180194,24.7169207 16.0343489,24.9792571 C14.2499311,25.2412276 12.2368088,25.3733105 9.99460838,25.3733105 C8.5102717,25.3733105 7.15299305,25.2342759 5.92127761,24.9558407 C4.68956218,24.6777715 3.63946499,24.2299336 2.77098602,23.6108635 C1.90213336,22.9928912 1.22386773,22.1894173 0.734320638,21.1993443 C0.244399846,20.2100031 2.25597319e-13,18.9894253 2.25597319e-13,17.5354157 C2.25597319e-13,16.1443375 0.276164352,14.9694948 0.829240456,14.0108875 C1.38119546,13.053012 2.1315852,12.2718569 3.07891488,11.6688856 C4.02661826,11.0659143 5.12342796,10.6334434 6.3712125,10.3703752 C7.61824963,10.1080388 8.92096808,9.97595593 10.2789941,9.97595593 C10.3873672,9.97595593 11.7274556,9.97705357 11.8380708,9.97961473 L11.8380708,14.0244251 C11.4000943,14.0445485 9.65790462,14.0862589 9.21357523,14.1499222 C8.56557931,14.2428559 7.9818598,14.4129903 7.4605482,14.6603257 C6.93961031,14.9080268 6.52069253,15.2556134 6.20566337,15.7038172 C5.88951311,16.1523869 5.73181168,16.7169407 5.73181168,17.396381 C5.73181168,18.7259912 6.15820346,19.6458151 7.01061332,20.1558527 C7.86339688,20.6662562 9.0155142,20.9209091 10.4684601,20.9209091 C12.2368088,20.9209091 13.5783921,20.8283413 14.4947046,20.6428399 L14.4947046,9.55885201 L14.4947046,4.35017534 L2.36851105,6.86560468" id="Fill-1"></path>
                    </g>
                </g>
            </g>
        </g>
    </g>
</svg>