<?xml version="1.0" encoding="UTF-8" standalone="no"?>
<svg width="51px" height="51px" viewBox="0 0 51 51" version="1.1" xmlns="http://www.w3.org/2000/svg" xmlns:xlink="http://www.w3.org/1999/xlink">
    <!-- Generator: Sketch 3.7.2 (28276) - http://www.bohemiancoding.com/sketch -->
    <title>noun_428707_cc</title>
    <desc>Created with Sketch.</desc>
    <defs></defs>
    <g id="Page-1" stroke="none" stroke-width="1" fill="none" fill-rule="evenodd">
        <g id="Desktop-HD" transform="translate(-992.000000, -1183.000000)" fill="#52E5BC">
            <g id="Group-3" transform="translate(891.000000, 1183.000000)">
                <g id="noun_428707_cc" transform="translate(101.000000, 0.000000)">
                    <g id="Group">
                        <path d="M16.4475,16.4475 C12.43125,20.46375 12.43125,26.96625 16.4475,30.9825 C20.46375,34.99875 26.96625,34.99875 30.9825,30.9825 C34.99875,26.96625 34.99875,20.46375 30.9825,16.4475 C27.03,12.43125 20.46375,12.43125 16.4475,16.4475 L16.4475,16.4475 Z" id="Shape"></path>
                        <path d="M25.5,0 C11.41125,0 0,11.41125 0,25.5 C0,39.58875 11.41125,51 25.5,51 C39.58875,51 51,39.58875 51,25.5 C51,11.41125 39.58875,0 25.5,0 L25.5,0 Z M40.35375,40.29 C39.71625,40.9275 38.69625,40.9275 38.05875,40.29 L32.13,34.36125 C26.83875,38.56875 19.125,38.18625 14.21625,33.2775 C8.925,27.98625 8.925,19.44375 14.21625,14.1525 C19.5075,8.86125 28.05,8.86125 33.34125,14.1525 C38.25,19.06125 38.56875,26.775 34.425,32.06625 L40.35375,37.995 C40.9275,38.6325 40.9275,39.6525 40.35375,40.29 L40.35375,40.29 Z" id="Shape"></path>
                    </g>
                </g>
            </g>
        </g>
    </g>
</svg>