<?xml version="1.0" encoding="UTF-8" standalone="no"?>
<svg width="52px" height="62px" viewBox="0 0 52 62" version="1.1" xmlns="http://www.w3.org/2000/svg" xmlns:xlink="http://www.w3.org/1999/xlink">
    <!-- Generator: Sketch 3.7.2 (28276) - http://www.bohemiancoding.com/sketch -->
    <title>noun_138925_cc</title>
    <desc>Created with Sketch.</desc>
    <defs></defs>
    <g id="Page-1" stroke="none" stroke-width="1" fill="none" fill-rule="evenodd">
        <g id="Desktop-HD" transform="translate(-400.000000, -1499.000000)" fill="#52E5BC">
            <g id="Group-5" transform="translate(299.000000, 1499.000000)">
                <g id="noun_138925_cc" transform="translate(101.000000, 0.000000)">
                    <g id="Group">
                        <path d="M30.9283684,22.4330989 C33.2936842,22.4330989 35.2108421,24.3421538 35.2108421,26.6974725 C35.2108421,29.0527912 33.2936842,30.9618462 30.9283684,30.9618462 C28.5630526,30.9618462 26.6458947,29.0527912 26.6458947,26.6974725 C26.6458947,24.3421538 28.5630526,22.4330989 30.9283684,22.4330989 L30.9283684,22.4330989 Z M51.3342632,22.2702637 C51.3342632,28.413033 48.8327895,33.9753187 44.7897895,38.0025934 L44.7897895,44.5187253 L44.7897895,61.3411648 L22.4174737,61.3411648 L22.4174737,52.8274066 L16.8322632,52.8274066 C12.4163684,52.8274066 8.83521053,49.2613846 8.83521053,44.8641538 L8.83521053,44.8621099 L8.83521053,39.5893846 L0.510421053,39.5893846 L6.64436842,22.2695824 C6.64436842,10.2729231 16.1802105,0.498725275 28.1142105,0.0408791209 L28.1142105,18.7805495 C24.8375263,19.9353846 22.4865789,23.0394725 22.4865789,26.6974725 C22.4865789,31.339978 26.2661579,35.1029011 30.9276842,35.1029011 C35.5892105,35.1029011 39.3701579,31.3406593 39.3701579,26.6981538 C39.3701579,23.0401538 37.0192105,19.9360659 33.7425263,18.7812308 L33.7425263,0.528703297 C43.7990526,2.6987033 51.3342632,11.6062637 51.3342632,22.2702637 L51.3342632,22.2702637 Z M16.2164737,25.2142418 C16.2164737,23.6492527 14.9411053,22.379956 13.3694737,22.379956 C11.7978421,22.379956 10.5224737,23.6492527 10.5224737,25.2142418 C10.5224737,26.7805934 11.7978421,28.0498901 13.3694737,28.0498901 C14.9411053,28.0498901 16.2164737,26.7805934 16.2164737,25.2142418 L16.2164737,25.2142418 Z" id="Shape"></path>
                    </g>
                </g>
            </g>
        </g>
    </g>
</svg>