<?xml version="1.0" encoding="utf-8"?>
<!-- Generator: Adobe Illustrator 19.2.1, SVG Export Plug-In . SVG Version: 6.00 Build 0)  -->
<!DOCTYPE svg PUBLIC "-//W3C//DTD SVG 1.1//EN" "http://www.w3.org/Graphics/SVG/1.1/DTD/svg11.dtd">
<svg version="1.1" id="Layer_1" xmlns="http://www.w3.org/2000/svg" xmlns:xlink="http://www.w3.org/1999/xlink" x="0px" y="0px"
	 viewBox="0 0 316.8 70.9" style="enable-background:new 0 0 316.8 70.9;" xml:space="preserve">
<style type="text/css">
	.st0{fill:#5D5E5E;}
	.st1{fill:#FFFFFF;}
</style>
<g>
	<path class="st1" d="M48.4,8.1c-2.1-2.3-4.8-4.1-8.3-5.3c-3.5-1.3-7.7-1.9-12.8-1.9c0,0-12.8-0.6-20.4,7v11.8l32.4-6.9
		c0,0,0,12.5,0,14.2v2.5v10.8v17c-2.5,0.5-6,0.8-10.8,0.8c-3.9,0-7-0.7-9.3-2.1c-2.3-1.4-3.4-3.9-3.4-7.5c0-1.9,0.4-3.4,1.3-4.6
		c0.8-1.2,2-2.2,3.4-2.9c1.4-0.7,3-1.1,4.7-1.4c1.2-0.2,5.9-0.3,7-0.3V28.1c-0.3,0-3.9,0-4.2,0c-3.6,0-7.1,0.4-10.5,1.1
		c-3.3,0.7-6.3,1.9-8.8,3.5c-2.5,1.6-4.5,3.8-6,6.4c-1.5,2.6-2.2,5.8-2.2,9.6c0,4,0.7,7.3,2,10c1.3,2.7,3.1,4.9,5.5,6.6
		c2.3,1.7,5.1,2.9,8.4,3.7c3.3,0.8,6.9,1.1,10.9,1.1c6,0,11.4-0.4,16.2-1.1c4.8-0.7,8.3-1.3,10.7-1.8V27.1c0-3.9-0.4-7.5-1.3-10.7
		C51.9,13.1,50.5,10.3,48.4,8.1z"/>
	<rect x="132.6" y="2.5" class="st1" width="15.3" height="66.3"/>
	<path class="st1" d="M209.9,10.3c-2.8-3-6.1-5.4-10.1-7s-8.2-2.5-12.9-2.5s-8.9,0.8-12.8,2.5c-3.9,1.6-7.2,4-10.1,7
		c-2.8,3-5,6.7-6.6,11c-1.6,4.3-2.3,9-2.3,14.3c0,5.2,0.8,10,2.3,14.3c1.6,4.3,3.7,8,6.5,11s6.1,5.4,10,7.1
		c3.9,1.7,8.2,2.5,12.9,2.5s9.1-0.8,13-2.5c3.9-1.7,7.3-4.1,10.1-7.1s4.9-6.7,6.5-11c1.5-4.3,2.3-9.1,2.3-14.3
		c0-5.2-0.8-10-2.3-14.3C214.8,17,212.7,13.4,209.9,10.3z M198.8,51.4c-2.8,3.9-6.8,5.8-11.9,5.8c-5.1,0-9-1.9-11.9-5.8
		c-2.8-3.9-4.2-9.2-4.2-15.8c0-6.6,1.4-11.8,4.2-15.7c2.8-3.8,6.8-5.8,11.9-5.8c5.1,0,9,1.9,11.9,5.8c2.8,3.8,4.2,9.1,4.2,15.7
		C203,42.2,201.6,47.5,198.8,51.4z"/>
	<path class="st1" d="M315.1,19.2c-0.7-3.8-2-7-3.9-9.6c-1.9-2.7-4.5-4.7-7.9-6.2c-3.3-1.5-7.6-2.2-12.7-2.2c-2,0-4,0.2-6,0.6
		c-2,0.4-3.9,1-5.6,1.6s-3.4,1.3-4.8,2.1c-1.4,0.8-2.6,1.5-3.5,2.2c-1.9-1.9-4.4-3.5-7.3-4.7c-2.9-1.2-6.7-1.8-11.2-1.8
		c-5.3,0-10.4,0.4-15.1,1.1c-4.8,0.8-8.6,1.6-11.6,2.4v64.1h15.3V15.3c1-0.2,2.5-0.4,4.6-0.6c2-0.3,3.9-0.4,5.6-0.4
		c4.7,0,8,1.5,9.7,4.6c1.7,3.1,2.6,8.1,2.6,15v34.9h15.3V32.1c0-2.7-0.1-5.2-0.4-7.6c-0.3-2.4-0.7-4.6-1.4-6.7
		c1.1-0.8,2.7-1.5,4.9-2.3c2.2-0.8,4.5-1.2,7-1.2c4.8,0,8.1,1.5,9.8,4.6c1.7,3.1,2.5,8.1,2.5,15v34.9h15.3V31.5
		C316.1,27,315.8,22.9,315.1,19.2z"/>
	<polygon class="st1" points="100.7,34.2 122.9,2.5 106.8,2.5 92.7,22.8 78.7,2.5 61.8,2.5 84.3,34.9 60.8,68.8 76.4,68.8 
		92.7,45.6 107.9,68.8 124.6,68.8 100.7,34.2 	"/>
</g>
</svg>
