<?xml version="1.0" encoding="UTF-8" standalone="no"?>
<svg width="148px" height="32px" viewBox="0 0 148 32" version="1.1" xmlns="http://www.w3.org/2000/svg" xmlns:xlink="http://www.w3.org/1999/xlink">
    <!-- Generator: Sketch 3.7.2 (28276) - http://www.bohemiancoding.com/sketch -->
    <title>Imported Layers Copy 4</title>
    <desc>Created with Sketch.</desc>
    <defs></defs>
    <g id="Page-1" stroke="none" stroke-width="1" fill="none" fill-rule="evenodd">
        <g id="Desktop-HD" transform="translate(-646.000000, -43.000000)" fill="#FFFFFF">
            <g id="Imported-Layers-Copy-4" transform="translate(646.000000, 43.000000)">
                <path d="M2.97224916,8.61566077 L2.97224916,3.22071499 C6.55930087,-0.29127993 12.5422537,0.00624559095 12.5422537,0.00624559095 C14.9203344,0.00624559095 16.9209047,0.297343091 18.5463095,0.879078947 C20.1707764,1.46127395 21.4683803,2.27579597 22.4400591,3.32356332 C23.410331,4.37133066 24.1043873,5.64224214 24.5203521,7.13537948 C24.9363169,8.62989424 25.1445338,10.2690395 25.1445338,12.0532743 L25.1445338,30.5026115 C24.0345127,30.7353976 22.3598674,31.0173122 20.1215359,31.3465187 C17.8822665,31.675266 15.3559954,31.8410171 12.5422537,31.8410171 C10.6795566,31.8410171 8.976305,31.6665423 7.43062289,31.3171335 C5.88494078,30.9681838 4.56717175,30.4061911 3.47731579,29.629319 C2.38699088,28.8538242 1.53583401,27.8455433 0.921500409,26.6030987 C0.306697846,25.3615725 2.29150032e-13,23.829867 2.29150032e-13,22.0052275 C2.29150032e-13,20.2595608 0.346559187,18.7852484 1.04061547,17.5822902 C1.73326489,16.3802504 2.67493045,15.3999773 3.86373632,14.6433074 C5.05301115,13.8866376 6.4293998,13.343929 7.99524706,13.0138042 C9.5601564,12.6845978 11.1949403,12.5188467 12.8991299,12.5188467 C13.0351274,12.5188467 14.716807,12.5202241 14.8556183,12.5234381 L14.8556183,17.5992786 C14.3060007,17.6245315 12.1197234,17.676874 11.5621336,17.7567651 C10.7489623,17.8733877 10.0164515,18.0868898 9.36225657,18.3972714 C8.70853058,18.7081121 8.18282984,19.1442992 7.78749913,19.706751 C7.39076155,20.2696619 7.19286171,20.9781216 7.19286171,21.8307526 C7.19286171,23.4992831 7.7279416,24.6535719 8.7976324,25.2936191 C9.86779216,25.9341254 11.3135864,26.2536899 13.1368911,26.2536899 C15.3559954,26.2536899 17.0395508,26.1375264 18.1894333,25.9047402 L18.1894333,11.9954221 L18.1894333,5.45904356 L2.97224916,8.61566077 Z M61.9285791,0.762915433 L69.1214408,0.762915433 L69.1214408,31.20097 L61.9285791,31.20097 L61.9285791,0.762915433 Z M102.326876,15.952787 C102.326876,18.3587033 101.970468,20.5506583 101.256716,22.5291112 C100.543432,24.5080232 99.5332991,26.1958377 98.2253782,27.5925547 C96.9174572,28.9892718 95.3417619,30.0760664 93.499699,30.8515611 C91.6571671,31.627515 89.6256456,32.015492 87.4060724,32.015492 C85.1869681,32.015492 83.1652947,31.627515 81.3438659,30.8515611 C79.5200923,30.0760664 77.9556519,28.9892718 76.6477309,27.5925547 C75.33981,26.1958377 74.3188907,24.5080232 73.58638,22.5291112 C72.8524623,20.5506583 72.4866759,18.3587033 72.4866759,15.952787 C72.4866759,13.5473299 72.8524623,11.365017 73.58638,9.405389 C74.3188907,7.44667933 75.3491891,5.76804769 76.6768063,4.37133066 C78.0039544,2.97415449 79.5796498,1.8979202 81.4034234,1.14079121 C83.2248522,0.384580512 85.2272984,0.00624559095 87.4060724,0.00624559095 C89.5853153,0.00624559095 91.5976096,0.384580512 93.4406104,1.14079121 C95.2831423,1.8979202 96.8578997,2.97415449 98.1658206,4.37133066 C99.4737416,5.76804769 100.493254,7.44667933 101.226703,9.405389 C101.960151,11.365017 102.326876,13.5473299 102.326876,15.952787 Z M43.2172359,20.5612759 L50.3289289,31.20097 L58.1614479,31.20097 L46.9529078,15.3462574 C46.9519699,15.34488 46.951032,15.3435025 46.9500941,15.3425842 L57.3886069,0.762915433 L49.8398068,0.762915433 L43.2322034,10.083086 L36.6433582,0.762915433 L28.737213,0.762915433 L39.2920271,15.6414872 L28.2616907,31.20097 L35.5957084,31.20097 L43.2172359,20.5612759 Z M94.9562793,15.952787 C94.9562793,12.9265668 94.2922362,10.5312109 92.9650881,8.76534182 C91.6360641,6.9999319 89.7841531,6.11699737 87.4060724,6.11699737 C85.0293985,6.11699737 83.1765496,6.9999319 81.8484635,8.76534182 C80.5203774,10.5312109 79.8572723,12.9265668 79.8572723,15.952787 C79.8572723,19.0180345 80.5203774,21.4432348 81.8484635,23.2274697 C83.1765496,25.0126228 85.0293985,25.9047402 87.4060724,25.9047402 C89.7841531,25.9047402 91.6360641,25.0126228 92.9650881,23.2274697 C94.2922362,21.4432348 94.9562793,19.0180345 94.9562793,15.952787 Z M123.093696,15.1961172 C123.093696,12.0151653 122.686642,9.71622971 121.874877,8.29931033 C121.062644,6.88376839 119.546506,6.1753087 117.327871,6.1753087 C116.534395,6.1753087 115.663073,6.23362003 114.712498,6.34978354 C113.760984,6.4664062 113.047701,6.5637448 112.572178,6.64088104 L112.572178,31.20097 L105.379316,31.20097 L105.379316,1.75237145 C106.766022,1.36485364 108.57901,0.995701605 110.818748,0.646292776 C113.05708,0.297343091 115.425312,0.122409104 117.922039,0.122409104 C120.06189,0.122409104 121.81532,0.394222543 123.182798,0.937390276 C124.549808,1.48101715 125.688904,2.19865973 126.600556,3.09077715 C127.036217,2.78039558 127.590525,2.45072996 128.264885,2.10132113 C128.938307,1.75237145 129.691921,1.43188871 130.52385,1.14079121 C131.356249,0.850152855 132.237888,0.608183797 133.169236,0.413506604 C134.099647,0.219747701 135.041313,0.122409104 135.992357,0.122409104 C138.409361,0.122409104 140.400553,0.462635047 141.966869,1.14079121 C143.531778,1.82032481 144.760445,2.77075355 145.651933,3.99299574 C146.543889,5.21523792 147.157753,6.69000948 147.494933,8.41593299 C147.831175,10.1427748 148,12.0344494 148,14.0904977 L148,31.20097 L140.807607,31.20097 L140.807607,15.1961172 C140.807607,12.0151653 140.41087,9.71622971 139.618801,8.29931033 C138.825326,6.88376839 137.300747,6.1753087 135.041313,6.1753087 C133.891899,6.1753087 132.802512,6.35988472 131.772214,6.72811846 C130.740977,7.0972705 129.968605,7.45540307 129.453691,7.8048119 C129.770705,8.77498385 129.989239,9.80346713 130.107885,10.8893435 C130.227001,11.9761381 130.286558,13.1400689 130.286558,14.381136 L130.286558,31.20097 L123.093696,31.20097 L123.093696,15.1961172 Z" id="Fill-1"></path>
            </g>
        </g>
    </g>
</svg>