<?xml version="1.0" encoding="utf-8"?>
<!-- Generator: Adobe Illustrator 19.2.1, SVG Export Plug-In . SVG Version: 6.00 Build 0)  -->
<svg version="1.1" id="Layer_1" xmlns="http://www.w3.org/2000/svg" xmlns:xlink="http://www.w3.org/1999/xlink" x="0px" y="0px"
	 viewBox="0 0 1800 1200" style="enable-background:new 0 0 1800 1200;" xml:space="preserve">
<style type="text/css">
	.st0{fill:#323232;}
	.st1{enable-background:new    ;}
	.st2{fill:#333332;}
	.st3{fill:#FFFFFF;}
</style>
<g>
	<path class="st0" d="M1589.7,76.9h-177.3c-69.5,0-126.1,56.6-126.1,126.1v189.2c0,69.5,56.6,126.1,126.1,126.1h177.3
		c69.5,0,126.1-56.6,126.1-126.1V203C1715.7,133.4,1659.2,76.9,1589.7,76.9z M1683.4,392.2c0,51.7-42.1,93.7-93.7,93.7h-177.3
		c-51.7,0-93.7-42.1-93.7-93.7V203c0-51.7,42.1-93.7,93.7-93.7h177.3c51.7,0,93.7,42.1,93.7,93.7V392.2z"/>
	<path class="st0" d="M1501.6,179.7c-30.5-0.9-59.6,10.5-81.9,32.2c-22.8,22.2-35.9,53.2-35.9,85.1c0,64.7,52.6,117.3,117.3,117.3
		c31.2,0,60.5-12.2,82.5-34.4c21.7-21.9,34-51.2,34.7-82.4c0.7-32.7-9.3-61-29.1-82.1C1568.4,193.1,1538.1,180.8,1501.6,179.7z
		 M1578.7,296.5c-1,43.8-35.1,78.2-77.7,78.2c-42.9,0-77.7-34.9-77.7-77.7c0-21.3,8.7-41.9,24-56.7c14-13.6,32.1-21,51.1-21
		c0.7,0,1.4,0,2.1,0c25.8,0.8,46.5,8.7,59.9,23.1C1572.9,255.7,1579.2,274.4,1578.7,296.5z"/>
	<circle class="st0" cx="1621.1" cy="176.4" r="27.3"/>
</g>
<g id="Page-1">
	<g id="Desktop-HD" transform="translate(-1200.000000, -2532.000000)">
		<g class="st1">
			<path class="st2" d="M1457.9,2772.1v-36.6c0-53.6,39.7-96.5,88.3-96.5h59.3v72.5h-59.3c-6.9,0-14.5,10.1-14.5,22.7v37.9h73.8
				v73.8h-73.8V3025h-73.8v-179.1h-59.3v-73.8H1457.9z"/>
		</g>
	</g>
</g>
<g id="Page-1_1_">
	<g id="Desktop-HD_1_" transform="translate(-1263.000000, -2536.000000)">
		<g class="st1">
			<path class="st2" d="M2350,2740.7c0,3.2,0,7.2,0,11.2c0,128.9-96.9,275.4-273.8,275.4c-54.5,0-104.9-16-148.1-44
				c7.2,0.8,15.2,0.8,23.2,0.8c44.8,0,86.5-14.4,119.3-40.8c-42.4-0.8-77.7-28.8-89.7-67.3c6.4,1.6,11.2,2.4,17.6,2.4
				c9.6,0,17.6-1.6,25.6-3.2c-44-9.6-77.7-48-77.7-94.5c0,0,0,0,0-0.8c12.8,6.4,27.2,11.2,44.8,11.2c-27.2-16.8-43.2-46.4-43.2-80.1
				c0-18.4,4.8-34.4,12.8-48.8c48,59.2,118.5,97.7,198.6,100.9c-1.6-6.4-2.4-14.4-2.4-20.8c0-53.6,43.2-97.7,96.1-97.7
				c28.8,0,52.8,12,70.5,30.4c21.6-3.2,43.2-12.8,61.7-22.4c-8,21.6-22.4,40-42.4,52.8c20-2.4,38.4-8,55.3-15.2
				C2385.2,2708.7,2368.4,2726.3,2350,2740.7z"/>
		</g>
	</g>
</g>
<g>
	<path class="st3" d="M1589.7,676.9h-177.3c-69.5,0-126.1,56.6-126.1,126.1v189.2c0,69.5,56.6,126.1,126.1,126.1h177.3
		c69.5,0,126.1-56.6,126.1-126.1V803C1715.7,733.4,1659.2,676.9,1589.7,676.9z M1683.4,992.2c0,51.7-42.1,93.7-93.7,93.7h-177.3
		c-51.7,0-93.7-42.1-93.7-93.7V803c0-51.7,42.1-93.7,93.7-93.7h177.3c51.7,0,93.7,42.1,93.7,93.7V992.2z"/>
	<path class="st3" d="M1501.6,779.7c-30.5-0.9-59.6,10.5-81.9,32.2c-22.8,22.2-35.9,53.2-35.9,85.1c0,64.7,52.6,117.3,117.3,117.3
		c31.2,0,60.5-12.2,82.5-34.4c21.7-21.9,34-51.2,34.7-82.4c0.7-32.7-9.3-61-29.1-82.1C1568.4,793.1,1538.1,780.8,1501.6,779.7z
		 M1578.7,896.5c-1,43.8-35.1,78.2-77.7,78.2c-42.9,0-77.7-34.9-77.7-77.7c0-21.3,8.7-41.9,24-56.7c14-13.6,32.1-21,51.1-21
		c0.7,0,1.4,0,2.1,0c25.8,0.8,46.5,8.7,59.9,23.1C1572.9,855.7,1579.2,874.4,1578.7,896.5z"/>
	<circle class="st3" cx="1621.1" cy="776.4" r="27.3"/>
</g>
<g id="Page-1_3_">
	<g id="Desktop-HD_3_" transform="translate(-1200.000000, -2532.000000)">
		<g class="st1">
			<path class="st3" d="M1457.9,3372.1v-36.6c0-53.6,39.7-96.5,88.3-96.5h59.3v72.5h-59.3c-6.9,0-14.5,10.1-14.5,22.7v37.9h73.8
				v73.8h-73.8V3625h-73.8v-179.1h-59.3v-73.8H1457.9z"/>
		</g>
	</g>
</g>
<g id="Page-1_2_">
	<g id="Desktop-HD_2_" transform="translate(-1263.000000, -2536.000000)">
		<g class="st1">
			<path class="st3" d="M2350,3340.7c0,3.2,0,7.2,0,11.2c0,128.9-96.9,275.4-273.8,275.4c-54.5,0-104.9-16-148.1-44
				c7.2,0.8,15.2,0.8,23.2,0.8c44.8,0,86.5-14.4,119.3-40.8c-42.4-0.8-77.7-28.8-89.7-67.3c6.4,1.6,11.2,2.4,17.6,2.4
				c9.6,0,17.6-1.6,25.6-3.2c-44-9.6-77.7-48-77.7-94.5c0,0,0,0,0-0.8c12.8,6.4,27.2,11.2,44.8,11.2c-27.2-16.8-43.2-46.4-43.2-80.1
				c0-18.4,4.8-34.4,12.8-48.8c48,59.2,118.5,97.7,198.6,100.9c-1.6-6.4-2.4-14.4-2.4-20.8c0-53.6,43.2-97.7,96.1-97.7
				c28.8,0,52.8,12,70.5,30.4c21.6-3.2,43.2-12.8,61.7-22.4c-8,21.6-22.4,40-42.4,52.8c20-2.4,38.4-8,55.3-15.2
				C2385.2,3308.7,2368.4,3326.3,2350,3340.7z"/>
		</g>
	</g>
</g>
</svg>
