<?xml version="1.0" encoding="UTF-8" standalone="no"?>
<svg width="57px" height="55px" viewBox="0 0 57 55" version="1.1" xmlns="http://www.w3.org/2000/svg" xmlns:xlink="http://www.w3.org/1999/xlink">
    <!-- Generator: Sketch 3.7.2 (28276) - http://www.bohemiancoding.com/sketch -->
    <title>noun_79559_cc</title>
    <desc>Created with Sketch.</desc>
    <defs></defs>
    <g id="Page-1" stroke="none" stroke-width="1" fill="none" fill-rule="evenodd">
        <g id="Desktop-HD" transform="translate(-395.000000, -1179.000000)" fill="#52E5BC">
            <g id="Group-4" transform="translate(297.000000, 1179.000000)">
                <g id="noun_79559_cc" transform="translate(98.000000, 0.000000)">
                    <g id="Group">
                        <path d="M0.000703703704,30.6434615 L4.22081481,30.6434615 L4.22081481,25.0052564 L0.000703703704,25.0052564 L0.000703703704,30.6434615 L0.000703703704,30.6434615 Z M5.27566667,40.1570513 L9.49577778,40.1570513 L9.49577778,15.4909615 L5.27566667,15.4909615 L5.27566667,40.1570513 L5.27566667,40.1570513 Z M10.5513333,47.5587821 L14.7714444,47.5587821 L14.7714444,8.09134615 L10.5513333,8.09134615 L10.5513333,47.5587821 L10.5513333,47.5587821 Z M15.8255926,54.9569872 L20.0464074,54.9569872 L20.0464074,0.691025641 L15.8255926,0.691025641 L15.8255926,54.9569872 L15.8255926,54.9569872 Z M26.3755185,36.6342308 L30.5956296,36.6342308 L30.5956296,19.0151923 L26.3755185,19.0151923 L26.3755185,36.6342308 L26.3755185,36.6342308 Z M31.6518889,39.8058974 L35.8705926,39.8058974 L35.8705926,15.4909615 L31.6518889,15.4909615 L31.6518889,39.8058974 L31.6518889,39.8058974 Z M36.9268519,38.0437821 L41.1462593,38.0437821 L41.1462593,17.605641 L36.9268519,17.605641 L36.9268519,38.0437821 L36.9268519,38.0437821 Z M42.2011111,34.1662821 L46.4226296,34.1662821 L46.4226296,21.4817308 L42.2011111,21.4817308 L42.2011111,34.1662821 L42.2011111,34.1662821 Z M47.4753704,31.3471795 L51.6968889,31.3471795 L51.6968889,24.3008333 L47.4753704,24.3008333 L47.4753704,31.3471795 L47.4753704,31.3471795 Z M52.7517407,25.0052564 L52.7517407,30.6434615 L56.9711481,30.6434615 L56.9711481,25.0052564 L52.7517407,25.0052564 L52.7517407,25.0052564 Z M21.1005556,47.5587821 L25.3206667,47.5587821 L25.3206667,8.09134615 L21.1005556,8.09134615 L21.1005556,47.5587821 L21.1005556,47.5587821 Z" id="Shape"></path>
                    </g>
                </g>
            </g>
        </g>
    </g>
</svg>